<svg xmlns="http://www.w3.org/2000/svg" width="1024" height="1024" viewBox="0 0 1024 1024">
<g>
<path d="M 513.56,896.75 C511.51,890.01 504.84,846.03 500.47,810.50 C499.05,798.95 496.57,779.38 494.95,767.00 C493.34,754.62 491.12,737.52 490.02,729.00 C486.49,701.51 481.98,666.69 481.04,659.60 L 480.12,652.69 L 487.31,644.72 C495.86,635.24 507.76,624.75 509.36,625.29 C510.19,625.56 510.67,643.78 511.13,692.08 C511.79,760.53 512.22,772.58 514.40,782.00 L 515.67,787.50 L 516.31,779.00 C517.01,769.82 517.84,725.92 518.49,663.00 C518.71,641.27 518.92,623.16 518.95,622.75 C519.09,620.64 522.43,622.90 531.54,631.27 C537.06,636.35 543.58,642.13 546.03,644.12 L 550.48,647.74 L 548.20,670.24 C546.95,682.61 545.30,696.73 544.54,701.62 C541.84,718.86 533.66,777.14 531.00,798.00 C529.99,805.98 528.02,820.15 526.62,829.50 C525.23,838.85 523.60,850.33 523.00,855.00 C521.87,863.80 517.39,891.79 516.48,895.75 C515.92,898.18 514.17,898.78 513.56,896.75 M 434.56,761.07 C431.78,757.99 433.41,743.73 437.70,733.74 C439.45,729.67 442.09,729.05 443.07,732.50 C443.39,733.62 444.41,734.43 445.39,734.35 C446.50,734.25 446.94,734.70 446.60,735.59 C446.31,736.35 445.80,739.34 445.47,742.24 C445.15,745.13 444.16,750.42 443.29,754.00 C441.16,762.70 438.21,765.09 434.56,761.07 M 592.36,758.22 C592.76,757.59 592.24,757.39 591.02,757.71 C589.52,758.10 588.78,757.53 588.00,755.36 C587.43,753.79 586.56,751.60 586.06,750.50 C585.57,749.40 584.20,744.45 583.01,739.50 C581.82,734.55 580.61,729.49 580.31,728.25 C580.01,727.00 580.48,724.91 581.37,723.55 C582.81,721.36 583.31,721.21 586.01,722.15 C589.97,723.53 591.07,725.73 594.47,739.00 C594.68,739.83 595.60,743.37 596.52,746.89 C598.12,753.02 598.11,753.37 596.28,755.82 C594.46,758.27 591.04,760.36 592.36,758.22 M 591.16,751.76 C590.19,750.79 590.18,751.03 591.04,755.50 C591.15,756.05 591.45,755.66 591.71,754.64 C591.97,753.62 591.73,752.33 591.16,751.76 M 384.86,733.98 C381.41,731.97 381.69,728.15 385.79,721.14 C387.92,717.49 394.05,705.81 399.41,695.19 C404.77,684.57 411.89,671.52 415.23,666.19 C427.71,646.30 437.17,628.93 440.53,619.76 C441.48,617.16 442.78,614.60 443.42,614.07 C445.14,612.64 452.75,611.12 455.10,611.74 C457.93,612.48 457.10,615.36 450.81,626.50 C442.03,642.07 432.00,660.30 432.00,660.69 C432.00,660.89 428.65,666.87 424.56,673.97 C420.46,681.07 412.95,694.67 407.87,704.19 C398.85,721.10 394.35,728.20 389.80,732.75 C387.26,735.28 387.14,735.31 384.86,733.98 M 397.68,708.81 C397.36,708.01 397.13,708.25 397.08,709.42 C397.04,710.47 397.27,711.06 397.60,710.73 C397.94,710.40 397.97,709.53 397.68,708.81 M 652.62,729.48 C651.73,728.59 648.01,723.28 644.37,717.68 C640.72,712.08 635.61,704.35 633.02,700.50 C628.81,694.26 619.04,678.36 615.00,671.17 C614.17,669.70 613.27,668.27 613.00,668.00 C611.42,666.42 610.03,662.75 610.63,661.71 C611.01,661.04 610.95,660.83 610.50,661.24 C609.59,662.06 605.46,655.51 599.62,644.00 C597.53,639.88 595.30,635.60 594.66,634.49 C594.02,633.39 591.73,629.34 589.58,625.49 C577.89,604.66 574.00,597.21 574.00,595.66 C574.00,594.88 574.72,593.65 575.60,592.92 C579.73,589.49 581.38,591.01 588.79,605.00 C590.39,608.02 592.61,612.08 593.73,614.00 C594.84,615.92 597.31,620.20 599.21,623.50 C601.10,626.80 605.30,634.00 608.53,639.50 C611.75,645.00 615.49,651.75 616.84,654.50 C619.24,659.43 629.25,674.13 633.51,679.00 C635.64,681.43 643.35,694.03 648.13,702.89 C650.98,708.16 651.62,709.20 655.56,715.00 C658.77,719.73 661.22,726.44 660.14,727.53 C659.79,727.88 659.50,728.69 659.50,729.33 C659.50,731.17 654.43,731.28 652.62,729.48 M 441.34,724.40 C439.73,721.94 439.74,721.43 441.45,715.15 C442.44,711.49 444.03,705.12 444.98,701.00 C445.92,696.88 448.54,687.65 450.79,680.50 C453.03,673.35 455.76,664.58 456.85,661.00 C457.94,657.42 459.73,652.02 460.83,649.00 C461.94,645.98 464.33,638.70 466.16,632.84 C467.99,626.98 469.90,622.44 470.41,622.75 C470.93,623.08 471.05,622.57 470.68,621.61 C469.79,619.28 472.36,613.42 474.85,612.08 C477.14,610.85 483.00,610.61 482.99,611.75 C482.97,613.77 477.81,632.47 475.98,637.16 C474.84,640.10 471.50,650.60 468.56,660.50 C465.62,670.40 461.80,683.00 460.06,688.50 C456.20,700.74 452.00,716.61 452.00,718.96 C452.00,719.91 451.29,722.11 450.43,723.85 C448.36,727.99 443.87,728.27 441.34,724.40 M 581.32,713.99 C580.11,713.51 578.71,712.30 578.20,711.31 C577.06,709.09 571.71,688.38 569.47,677.50 C568.56,673.10 567.19,667.02 566.43,664.00 C565.67,660.98 564.35,655.58 563.51,652.00 C562.67,648.42 561.11,642.58 560.04,639.00 C557.24,629.64 554.06,615.75 553.43,610.08 C552.96,605.89 553.21,604.88 555.13,603.09 C559.69,598.84 562.30,601.51 564.91,613.09 C568.72,629.94 569.87,634.70 572.77,645.50 C574.40,651.55 576.72,661.00 577.93,666.50 C579.14,672.00 581.24,681.36 582.59,687.31 C586.10,702.67 587.34,713.17 585.75,714.18 C584.26,715.12 584.11,715.12 581.32,713.99 M 559.53,608.19 C559.22,607.89 558.41,608.19 557.73,608.88 C556.75,609.86 556.87,609.98 558.29,609.44 C559.28,609.06 559.83,608.50 559.53,608.19 M 320.40,705.60 C319.58,703.46 323.85,666.66 326.09,656.59 C328.54,645.59 335.28,624.63 339.07,616.22 C345.35,602.29 356.91,585.28 369.80,571.00 C382.98,556.40 394.79,546.49 420.50,528.47 C427.25,523.75 444.70,514.77 457.21,509.59 C465.54,506.15 517.30,488.65 528.50,485.50 C550.41,479.32 588.24,461.97 600.19,452.61 C601.67,451.45 605.04,448.93 607.69,447.00 C616.71,440.44 629.84,428.99 635.52,422.74 C654.58,401.73 669.25,367.31 670.56,340.50 C670.91,333.48 670.83,332.99 669.91,336.50 C664.30,357.92 660.36,369.37 654.77,380.48 C638.79,412.23 618.15,431.91 580.00,451.78 C562.13,461.08 548.60,466.76 531.00,472.34 C497.52,482.94 453.05,498.22 444.30,502.13 C442.00,503.16 439.89,504.00 439.62,504.00 C438.12,504.00 418.17,514.18 410.50,518.86 C389.82,531.49 369.18,549.66 354.43,568.21 C350.62,573.01 346.93,576.94 346.23,576.96 C345.53,576.98 344.44,575.87 343.82,574.50 C342.52,571.64 344.35,561.48 348.68,547.50 C352.69,534.59 362.52,510.61 367.96,500.50 C380.07,478.01 398.83,457.25 419.92,443.05 C441.92,428.22 474.82,416.06 518.66,406.55 C525.34,405.10 534.12,402.84 538.16,401.53 C542.20,400.22 550.12,397.98 555.76,396.55 C561.40,395.13 567.47,393.33 569.26,392.57 C571.04,391.80 577.23,389.28 583.00,386.96 C611.31,375.62 629.50,362.58 642.67,344.19 C651.93,331.25 657.01,316.65 660.41,293.15 C661.88,282.97 663.83,279.35 666.39,282.04 C670.73,286.59 683.27,322.26 685.54,336.50 C690.23,365.94 689.39,382.51 681.36,418.39 C673.75,452.40 659.07,485.19 638.55,513.98 C626.95,530.25 604.84,550.93 587.50,561.71 C579.28,566.82 565.17,573.58 554.00,577.76 C533.14,585.58 512.41,589.96 482.00,592.99 C426.19,598.55 405.30,604.23 381.06,620.44 C368.78,628.66 361.90,634.87 354.67,644.32 C343.16,659.34 336.10,674.29 331.28,693.81 C329.89,699.48 328.09,704.77 327.30,705.56 C325.46,707.40 321.10,707.43 320.40,705.60 M 359.75,682.24 C356.45,680.20 356.44,680.02 359.07,674.86 C361.85,669.41 408.06,623.00 410.71,623.00 C412.83,623.00 415.28,625.33 416.37,628.38 C416.88,629.82 415.67,631.55 411.27,635.70 C392.84,653.07 385.29,661.01 375.20,673.67 C366.32,684.81 365.04,685.52 359.75,682.24 M 674.36,671.25 C670.90,667.54 667.29,663.06 666.33,661.30 C664.68,658.25 664.68,658.01 666.42,656.09 C668.21,654.11 668.29,654.11 671.92,655.96 C676.47,658.28 689.00,671.38 689.00,673.82 C689.00,676.44 686.99,678.00 683.62,678.00 C681.23,678.00 679.40,676.66 674.36,671.25 M 715.50,653.12 C713.30,652.11 710.60,650.25 709.50,648.99 C708.40,647.74 703.27,643.57 698.10,639.73 C687.18,631.63 681.31,625.64 680.44,621.71 C679.75,618.61 681.33,615.99 683.87,616.01 C686.08,616.02 695.94,623.26 714.25,638.29 C721.14,643.95 723.13,646.17 723.61,648.75 C724.24,652.07 722.82,655.02 720.63,654.98 C720.01,654.97 717.70,654.13 715.50,653.12 M 657.35,650.51 C652.78,648.58 628.14,624.29 617.09,610.80 C599.64,589.52 597.00,585.73 597.00,581.96 C597.00,580.40 601.63,577.92 603.32,578.57 C605.83,579.53 616.09,592.05 615.35,593.24 C614.98,593.85 615.16,594.02 615.77,593.64 C616.40,593.26 620.97,597.88 626.50,604.48 C631.80,610.80 636.75,616.32 637.48,616.74 C638.22,617.16 644.93,623.46 652.41,630.75 C667.20,645.18 668.55,647.63 663.23,650.38 C660.91,651.58 659.96,651.60 657.35,650.51 M 667.46,613.40 C660.19,608.48 654.50,603.79 654.74,602.93 C654.87,602.46 654.42,602.28 653.74,602.53 C653.06,602.78 650.69,601.30 648.47,599.24 C646.25,597.18 643.33,594.77 641.97,593.87 C638.91,591.85 618.96,574.36 617.25,572.20 C614.71,568.98 617.05,563.00 620.85,563.00 C621.50,563.00 625.77,566.32 630.32,570.37 C638.65,577.78 649.30,586.15 667.94,599.95 C673.47,604.05 678.00,608.03 678.00,608.80 C678.00,610.81 674.09,616.00 672.57,616.00 C671.86,616.00 669.56,614.83 667.46,613.40 M 752.00,611.67 C750.62,611.07 746.24,609.10 742.25,607.29 C738.26,605.48 734.76,604.00 734.48,604.00 C733.02,604.00 702.89,590.07 699.00,587.60 C697.08,586.38 692.35,584.06 688.50,582.46 C680.85,579.27 655.25,566.44 653.26,564.80 C652.58,564.23 652.27,563.38 652.56,562.90 C652.86,562.42 652.43,562.28 651.61,562.59 C649.57,563.38 637.65,556.56 634.49,552.81 C632.18,550.06 632.06,549.54 633.32,547.63 C634.10,546.46 635.58,545.37 636.61,545.22 C638.98,544.87 655.00,552.54 655.00,554.02 C655.00,554.63 655.36,554.90 655.80,554.63 C656.55,554.16 663.50,557.45 683.00,567.50 C687.67,569.91 694.88,573.23 699.00,574.87 C703.12,576.51 710.43,579.68 715.23,581.93 C720.03,584.17 724.30,586.01 724.73,586.01 C726.63,586.05 758.47,602.80 759.39,604.25 C760.11,605.40 760.00,606.63 758.99,608.51 C757.11,612.04 755.02,612.98 752.00,611.67 M 667.35,563.46 C667.02,562.61 666.54,562.13 666.28,562.39 C666.01,562.65 666.10,563.35 666.46,563.93 C667.44,565.53 668.02,565.22 667.35,563.46 M 250.62,554.81 C246.36,552.42 251.03,545.61 257.59,544.67 C286.93,540.43 298.45,539.28 310.50,539.40 L 321.50,539.50 L 321.80,542.05 C322.21,545.56 319.66,547.43 312.50,548.91 C309.20,549.58 304.87,550.56 302.88,551.07 C300.90,551.58 296.85,552.01 293.88,552.02 C290.92,552.04 286.70,552.46 284.50,552.95 C275.26,555.05 253.20,556.25 250.62,554.81 M 725.00,551.95 C716.63,549.59 709.41,548.15 706.00,548.16 C700.18,548.19 682.89,545.66 677.00,543.92 C673.65,542.93 668.37,540.83 659.29,536.87 C653.98,534.55 652.36,531.89 654.86,529.63 C657.28,527.44 658.61,527.54 670.91,530.86 C687.40,535.32 694.59,536.83 707.00,538.42 C722.37,540.40 739.12,545.31 744.25,549.34 C746.43,551.06 746.53,554.58 744.42,555.39 C741.79,556.40 739.08,555.92 725.00,551.95 M 318.50,520.41 C311.90,519.07 301.32,517.07 295.00,515.97 C288.68,514.87 279.90,513.32 275.50,512.54 C271.10,511.76 262.77,510.39 257.00,509.50 C251.22,508.60 237.95,506.28 227.50,504.35 C217.05,502.41 200.18,499.55 190.00,497.99 C179.82,496.43 162.50,493.78 151.50,492.10 C140.50,490.42 126.65,488.30 120.72,487.39 C111.29,485.93 107.88,484.79 109.16,483.51 C109.36,483.31 116.71,482.18 125.51,481.00 C134.30,479.82 143.75,478.42 146.50,477.89 C149.25,477.36 156.22,476.28 162.00,475.50 C167.78,474.72 183.30,472.48 196.50,470.51 C209.70,468.55 229.50,465.63 240.50,464.04 C269.57,459.83 292.82,456.26 306.50,453.92 C338.90,448.38 341.16,448.19 344.51,450.83 C345.96,451.97 348.75,455.06 350.72,457.70 C352.68,460.34 357.03,465.32 360.39,468.77 C366.41,474.97 366.47,475.08 364.96,477.77 C363.55,480.28 362.80,480.55 355.46,481.12 C351.08,481.47 317.80,482.03 281.50,482.38 C245.20,482.73 214.17,483.38 212.54,483.82 C209.90,484.54 209.79,484.71 211.54,485.41 C215.46,486.99 246.60,488.01 296.30,488.17 C324.23,488.26 347.24,488.60 347.43,488.92 C348.15,490.15 345.03,506.11 342.46,514.35 L 339.76,523.00 L 335.13,522.92 C332.58,522.88 325.10,521.75 318.50,520.41 M 694.36,520.20 C680.98,504.56 671.88,492.74 672.33,491.57 C673.12,489.51 680.10,489.14 730.45,488.49 C787.87,487.75 822.27,485.87 820.01,483.61 C819.22,482.82 797.78,482.44 746.29,482.29 C702.38,482.16 673.30,481.70 672.73,481.13 C671.36,479.76 673.15,475.30 680.81,461.00 C688.81,446.06 687.46,446.58 708.47,450.38 C716.18,451.78 728.35,453.83 735.50,454.94 C742.65,456.05 755.48,458.09 764.00,459.46 C793.37,464.19 845.58,472.11 876.65,476.55 C910.07,481.32 919.62,483.12 919.30,484.58 C919.09,485.55 913.76,486.62 895.00,489.46 C888.67,490.42 881.70,491.58 879.50,492.05 C877.30,492.51 867.40,494.06 857.50,495.49 C847.60,496.92 834.55,498.96 828.50,500.02 C822.45,501.09 806.25,503.79 792.50,506.03 C778.75,508.26 759.85,511.40 750.50,513.00 C741.15,514.60 727.88,516.84 721.00,517.98 C714.12,519.12 705.84,520.69 702.59,521.47 L 696.67,522.90 L 694.36,520.20 M 378.00,444.25 C376.62,443.35 372.57,440.49 369.00,437.90 C358.47,430.26 340.26,419.05 329.28,413.44 C323.67,410.57 317.37,406.91 315.28,405.31 C313.20,403.70 308.35,400.55 304.50,398.30 C296.38,393.55 289.78,386.81 290.70,384.22 C292.25,379.87 296.49,378.48 299.00,381.50 C299.68,382.32 300.81,383.00 301.50,383.00 C302.19,383.00 303.29,383.64 303.93,384.42 C305.63,386.46 330.10,402.71 333.33,403.94 C334.82,404.50 338.52,406.55 341.54,408.48 C344.57,410.42 347.25,412.00 347.50,412.00 C347.75,412.00 350.42,413.57 353.43,415.50 C356.44,417.43 359.13,419.00 359.40,419.00 C360.29,419.00 372.68,427.91 373.98,429.48 C374.68,430.32 375.67,431.00 376.18,431.00 C377.27,431.00 384.91,436.80 386.71,439.00 C388.40,441.06 388.31,441.69 386.00,444.00 C383.61,446.39 381.37,446.46 378.00,444.25 M 283.50,441.30 C281.85,440.40 276.45,438.26 271.50,436.54 C266.55,434.82 261.38,432.77 260.00,431.99 C257.53,430.59 252.71,428.44 242.00,423.96 C234.23,420.72 230.00,417.39 230.00,414.53 C230.00,413.23 230.56,411.97 231.25,411.74 C232.59,411.28 246.84,416.06 251.00,418.36 C252.38,419.12 256.43,420.73 260.00,421.95 C263.57,423.16 267.85,424.74 269.50,425.44 C276.60,428.49 280.72,429.93 284.00,430.54 C288.45,431.36 295.00,435.55 295.00,437.58 C295.00,442.85 289.60,444.60 283.50,441.30 M 392.62,421.77 C387.60,416.61 378.77,408.61 373.00,403.99 C359.33,393.06 337.56,371.51 338.56,369.90 C338.99,369.20 338.89,368.95 338.32,369.30 C337.22,369.98 318.69,351.52 317.69,348.76 C317.03,346.90 320.37,343.00 322.64,343.00 C325.31,343.00 332.90,349.21 339.98,357.19 C351.06,369.65 365.63,383.91 373.50,389.98 C380.73,395.56 386.42,400.49 391.10,405.25 C392.59,406.76 394.14,408.00 394.56,408.00 C394.97,408.00 396.93,409.71 398.91,411.81 C409.75,423.29 411.72,429.98 404.52,430.83 C402.15,431.11 400.40,429.78 392.62,421.77 M 345.68,374.81 C345.36,374.01 345.13,374.25 345.08,375.42 C345.04,376.47 345.27,377.06 345.60,376.73 C345.94,376.40 345.97,375.53 345.68,374.81 M 705.19,428.29 C701.23,427.53 703.08,424.68 709.08,422.30 C712.14,421.08 722.48,418.52 732.07,416.61 C741.66,414.70 755.58,411.51 763.00,409.52 C786.35,403.28 791.82,402.70 790.31,406.63 C789.87,407.77 790.04,408.09 790.82,407.61 C791.55,407.16 791.78,407.41 791.44,408.29 C790.76,410.07 785.02,413.29 778.00,415.84 C770.38,418.59 751.72,422.84 744.50,423.46 C736.11,424.18 722.04,426.60 718.68,427.91 C715.92,428.98 709.74,429.16 705.19,428.29 M 425.46,412.15 C420.24,408.94 412.80,399.65 404.50,385.96 C403.40,384.15 401.52,381.05 400.33,379.08 C399.13,377.11 397.76,375.05 397.29,374.50 C396.82,373.95 393.72,369.45 390.40,364.50 C375.42,342.13 368.60,332.31 366.39,329.95 C365.07,328.54 364.00,327.04 364.00,326.60 C364.00,326.17 361.37,322.14 358.14,317.66 C345.66,300.26 337.00,286.80 337.64,285.77 C338.01,285.18 337.86,284.97 337.32,285.30 C336.77,285.64 335.27,284.02 333.98,281.71 C331.37,277.01 328.31,272.49 325.90,269.76 C325.02,268.76 323.07,265.51 321.56,262.53 C318.59,256.66 318.75,253.74 322.15,251.92 C323.88,250.99 324.73,251.45 328.17,255.17 C331.57,258.85 346.00,279.29 346.00,280.43 C346.00,281.26 365.42,309.69 368.01,312.65 C369.52,314.38 371.82,317.97 373.13,320.63 C375.61,325.70 376.45,326.89 381.73,332.85 C383.51,334.86 384.76,337.06 384.52,337.74 C384.27,338.42 384.56,338.87 385.15,338.74 C385.75,338.61 390.88,345.25 396.56,353.50 C402.24,361.75 409.08,371.65 411.76,375.50 C414.43,379.35 418.92,385.88 421.72,390.01 C424.52,394.13 428.09,398.86 429.65,400.51 C434.63,405.78 435.38,408.01 433.19,410.95 C430.75,414.22 429.21,414.46 425.46,412.15 M 450.92,399.02 C448.51,397.61 441.78,386.16 442.59,384.85 C443.01,384.18 442.87,383.96 442.27,384.33 C441.38,384.89 421.00,345.70 421.00,343.44 C421.00,342.78 413.44,326.53 410.92,321.76 C408.62,317.43 410.77,310.00 414.31,310.00 C416.89,310.00 422.97,319.42 424.72,326.11 C425.73,330.01 437.17,355.32 440.03,360.00 C440.54,360.82 443.53,366.68 446.68,373.00 C449.83,379.32 453.14,385.62 454.05,387.00 C459.41,395.15 457.41,402.81 450.92,399.02 M 700.60,395.85 C699.49,394.26 699.36,393.19 700.12,391.78 C701.06,390.01 709.53,384.00 711.07,384.00 C711.44,384.00 716.19,381.47 721.62,378.38 C727.05,375.29 735.05,371.26 739.38,369.42 C743.71,367.58 747.99,365.48 748.88,364.75 C752.70,361.63 777.15,350.74 781.43,350.26 C785.76,349.77 786.00,349.87 786.00,352.20 C786.00,356.19 780.15,359.93 755.39,371.79 C742.73,377.86 728.23,385.33 723.17,388.39 C706.07,398.76 703.29,399.68 700.60,395.85 M 469.76,384.75 C468.95,383.51 467.10,379.05 465.64,374.83 C464.19,370.61 462.70,366.37 462.33,365.42 C461.88,364.24 462.03,363.90 462.82,364.39 C463.57,364.86 463.77,364.57 463.38,363.56 C463.06,362.71 462.47,362.21 462.07,362.46 C461.07,363.07 458.51,353.39 456.62,341.85 C455.74,336.54 453.95,328.21 452.63,323.35 C451.31,318.48 449.68,312.12 449.01,309.21 C446.99,300.44 449.31,294.01 453.95,295.49 C456.68,296.35 457.61,298.31 458.96,306.03 C459.58,309.59 461.41,316.80 463.01,322.05 C464.62,327.31 466.21,334.28 466.55,337.55 C466.88,340.82 468.24,347.55 469.56,352.50 C470.88,357.45 472.88,365.10 474.01,369.50 C475.14,373.90 476.47,379.06 476.97,380.97 C477.58,383.26 477.53,384.87 476.82,385.72 C475.14,387.74 471.37,387.22 469.76,384.75 M 270.67,374.21 C264.06,368.69 260.66,364.36 261.66,362.75 C261.92,362.32 262.63,362.27 263.22,362.64 C263.87,363.04 264.02,362.84 263.59,362.15 C263.20,361.51 263.53,360.73 264.34,360.42 C265.23,360.08 267.74,361.64 270.66,364.34 C273.32,366.81 276.96,370.10 278.75,371.66 C282.92,375.31 283.56,379.41 280.00,379.71 C278.24,379.85 275.46,378.21 270.67,374.21 M 508.83,371.19 C508.65,370.75 506.48,369.00 504.00,367.31 C498.55,363.59 482.01,348.78 480.71,346.44 C479.59,344.44 481.05,329.33 484.53,307.00 C487.35,288.92 493.39,245.73 495.51,228.48 C496.32,221.89 497.43,213.35 497.98,209.50 C498.53,205.65 500.09,194.18 501.45,184.00 C504.66,159.91 510.69,119.00 512.06,112.00 C513.56,104.35 514.00,103.00 515.03,103.00 C516.36,103.00 517.73,109.07 519.43,122.50 C520.26,129.10 522.56,145.30 524.53,158.50 C526.50,171.70 528.78,187.45 529.60,193.50 C530.42,199.55 532.65,214.18 534.55,226.00 C536.46,237.82 538.71,252.22 539.56,258.00 C542.01,274.59 543.50,284.54 548.10,314.80 C551.99,340.36 552.26,343.33 550.94,345.52 C549.12,348.52 534.13,362.17 527.00,367.32 C520.63,371.92 520.05,371.44 519.99,361.50 C519.81,331.46 517.94,228.50 517.42,220.50 C517.06,215.00 516.41,210.11 515.98,209.64 C515.24,208.84 514.76,212.18 513.43,227.50 C513.14,230.80 512.69,263.65 512.43,300.50 C512.17,337.35 511.73,368.51 511.46,369.75 C510.97,371.96 509.49,372.78 508.83,371.19 M 564.44,367.30 C562.97,365.83 562.82,364.17 563.35,355.05 C563.69,349.25 564.38,342.93 564.90,341.00 C565.41,339.07 566.13,333.45 566.48,328.50 C567.29,317.33 568.47,309.22 571.06,297.00 C574.58,280.48 575.79,277.16 578.93,275.54 C581.49,274.21 581.91,274.24 583.38,275.87 C584.86,277.50 584.88,278.45 583.61,285.71 C582.84,290.13 581.76,294.59 581.22,295.62 C580.29,297.39 579.41,301.58 578.53,308.50 C578.32,310.15 577.45,316.90 576.61,323.50 C575.77,330.10 574.97,339.96 574.85,345.42 C574.58,357.13 572.83,364.83 569.90,367.25 C567.26,369.43 566.57,369.43 564.44,367.30 M 596.03,360.53 C593.97,358.06 596.77,345.68 604.84,321.50 C607.05,314.90 610.30,304.77 612.06,299.00 C615.29,288.45 616.83,286.00 620.22,286.00 C623.82,286.00 624.20,290.39 621.46,300.31 C620.06,305.37 618.48,310.28 617.96,311.24 C617.43,312.19 617.00,313.54 617.00,314.24 C617.00,317.54 602.28,358.04 600.27,360.25 C598.34,362.38 597.60,362.43 596.03,360.53 M 303.90,336.83 C301.48,335.08 297.77,332.05 295.65,330.08 C289.76,324.61 265.00,297.15 265.00,296.10 C265.00,293.61 266.45,292.00 268.68,292.00 C270.56,292.00 276.42,297.24 293.18,313.89 C311.68,332.27 315.10,336.11 314.54,337.89 C313.54,341.02 309.10,340.58 303.90,336.83 M 404.83,298.25 C404.01,297.29 402.10,293.80 400.59,290.50 C399.08,287.20 396.94,282.80 395.84,280.71 C394.73,278.63 392.03,272.10 389.83,266.21 C387.64,260.32 384.92,253.03 383.79,250.00 C382.66,246.97 381.28,243.93 380.73,243.23 C380.02,242.34 380.28,241.30 381.60,239.73 C382.63,238.50 383.53,237.38 383.60,237.23 C383.66,237.08 384.43,237.23 385.31,237.57 C386.76,238.12 398.00,259.45 398.00,261.64 C398.00,262.14 399.35,265.16 401.00,268.34 C402.65,271.52 404.00,274.53 404.00,275.03 C404.00,275.53 405.17,278.55 406.60,281.72 C412.08,293.88 412.32,294.86 410.50,297.64 C408.66,300.45 406.85,300.64 404.83,298.25 M 446.99,284.98 C446.39,283.86 444.59,277.00 442.98,269.73 C441.38,262.45 439.59,254.93 439.02,253.00 C438.44,251.07 437.75,248.38 437.49,247.00 C437.23,245.62 436.82,243.50 436.57,242.28 C436.33,241.06 435.82,236.92 435.44,233.07 C434.75,226.14 434.77,226.06 437.49,224.82 C442.60,222.49 443.48,224.96 450.04,260.00 C451.22,266.32 452.86,273.88 453.68,276.80 C455.02,281.57 455.01,282.33 453.56,284.55 C451.61,287.52 448.46,287.73 446.99,284.98 Z" fill="rgba(0,0,0,1)"/>
</g>
</svg>